<svg xmlns="http://www.w3.org/2000/svg" width="128" height="128" fill="none" viewBox="0 0 128 128"><rect width="128" height="128" fill="#1C1C1C" rx="10"/><circle cx="64" cy="64" r="55" fill="#68D391"/><path stroke="#1C1C1C" stroke-linecap="round" stroke-linejoin="round" stroke-width="4" d="M53.094 87.3333H74.9013H53.094ZM64 22V26.6667V22ZM93.6987 34.3013L90.3993 37.6007L93.6987 34.3013ZM106 64H101.333H106ZM26.6667 64H22H26.6667ZM37.6007 37.6007L34.3013 34.3013L37.6007 37.6007ZM47.4987 80.5013C44.2361 77.2379 42.0144 73.0802 41.1146 68.5542C40.2147 64.0281 40.6772 59.3369 42.4434 55.0736C44.2096 50.8104 47.2003 47.1666 51.0373 44.603C54.8743 42.0393 59.3854 40.671 64 40.671C68.6146 40.671 73.1256 42.0393 76.9627 44.603C80.7997 47.1666 83.7904 50.8104 85.5566 55.0736C87.3228 59.3369 87.7853 64.0281 86.8854 68.5542C85.9856 73.0802 83.7639 77.2379 80.5013 80.5013L77.944 83.054C76.482 84.5163 75.3223 86.2523 74.5312 88.1627C73.7401 90.0732 73.3331 92.1209 73.3333 94.1887V96.6667C73.3333 99.142 72.35 101.516 70.5997 103.266C68.8493 105.017 66.4754 106 64 106C61.5246 106 59.1507 105.017 57.4003 103.266C55.65 101.516 54.6667 99.142 54.6667 96.6667V94.1887C54.6667 90.012 53.0053 86.0033 50.056 83.054L47.4987 80.5013Z"/></svg>